<svg width="375" height="373" viewBox="0 0 375 373" fill="none" xmlns="http://www.w3.org/2000/svg">
<path d="M166.223 70.1561C155.273 78.6797 145.972 86.0013 145.532 86.3655C145.129 86.7298 144.727 87.0576 144.617 87.0576C144.543 87.0576 144.507 84.9814 144.543 82.4315C144.653 77.3319 144.287 75.2557 143.188 74.6729C142.786 74.4543 139.014 74.3086 133.887 74.3086H125.281L124.548 75.2557C123.816 76.2027 123.779 76.6398 123.779 89.7531L123.743 103.267L111.804 112.556C105.249 117.655 99.5727 122.245 99.2065 122.718C98.1811 123.993 98.3276 125.523 99.5727 126.798C101.111 128.292 102.722 128.219 104.883 126.58C105.798 125.888 115.649 118.238 126.782 109.532C137.915 100.863 151.501 90.2995 156.921 86.0741C162.378 81.8487 171.35 74.855 176.88 70.5203C182.41 66.2221 187.134 62.6523 187.317 62.6523C187.537 62.6523 196.985 69.9011 208.374 78.7161C231.592 96.7469 258.728 117.728 266.382 123.593C269.165 125.742 271.875 127.6 272.351 127.709C274.548 128.255 276.782 125.997 276.343 123.629C276.123 122.573 274.915 121.516 265.759 114.45C260.083 110.042 250.012 102.247 243.347 97.0747C219.58 78.6433 193.982 58.7912 191.272 56.7149C189.221 55.1486 188.232 54.6387 187.317 54.6387C186.291 54.6387 183.289 56.8242 166.223 70.1561ZM137.695 86.6205V92.3758L136.707 93.1407C136.121 93.5414 134.473 94.8163 133.044 95.9455L130.371 98.0218V89.4617V80.8652H134.033H137.695V86.6205Z" fill="#912C21"/>
<path d="M181.421 97.2568C171.936 98.2403 162.817 101.591 154.358 107.128C149.085 110.589 141.431 118.129 138.135 123.083C133.997 129.348 131.25 135.868 129.566 143.408C128.467 148.289 128.394 161.148 129.382 166.466C131.067 175.39 135.791 185.699 141.138 192.146C141.943 193.129 148.792 200.779 156.336 209.084C172.156 226.495 175.086 229.737 181.018 236.33C185.632 241.466 186.731 242.159 188.672 241.066C189.185 240.811 197.534 231.814 207.275 221.104C217.017 210.395 226.721 199.759 228.809 197.464C235.144 190.543 238.367 185.735 241.333 178.923C244.629 171.31 245.874 164.863 245.874 155.356C245.874 147.306 245.325 143.445 243.164 136.961C234.668 111.062 208.704 94.4156 181.421 97.2568ZM187.903 132.226L192.224 144.428L192.261 138.6V132.772H209.656H227.051V139.401V146.067H221.558H216.065V168.469V190.871H209.107H202.149V186.026V181.218H196.033H189.88L188.086 176.009L186.328 170.837L175.488 170.91L164.685 171.019L162.964 176.119L161.243 181.218H153.589C148.865 181.218 145.972 181.073 146.008 180.854C146.045 180.635 150.989 166.83 156.995 150.147L167.871 119.841L175.745 119.914L183.618 120.023L187.903 132.226Z" fill="#912C21"/>
<path d="M172.522 148.034C170.837 153.061 169.373 157.396 169.263 157.614C169.153 157.979 170.545 158.088 175.562 158.088C180.469 158.088 182.007 157.979 182.007 157.614C182.007 157.068 176.111 139.401 175.818 139.11C175.708 138.964 174.207 143.008 172.522 148.034Z" fill="#912C21"/>
<path d="M192.993 146.14C192.993 146.249 201.526 170.618 201.892 171.565C202.002 171.857 202.112 166.247 202.112 159.071L202.148 146.067H197.571C195.044 146.067 192.993 146.104 192.993 146.14Z" fill="#912C21"/>
<path d="M117.92 247.95C107.849 248.497 100.342 256.146 100.342 265.908C100.342 274.213 105.762 281.207 114.038 283.575C117.261 284.522 123.193 284.194 126.233 282.955L128.467 282.045L130.298 283.866L132.166 285.687L134.692 283.611L137.256 281.535L135.315 279.714L133.374 277.892L134.619 275.816C136.707 272.392 137.439 269.405 137.256 265.07C137.036 260.59 136.194 258.113 133.74 254.871C130.115 250.136 124.365 247.622 117.92 247.95ZM122.717 256.219C127.661 258.55 129.712 264.888 127.441 270.789L127.075 271.809L125.208 269.587L123.34 267.365L120.996 269.405C119.714 270.534 118.652 271.554 118.652 271.663C118.652 271.809 119.495 272.756 120.557 273.813C121.582 274.869 122.351 275.816 122.205 275.962C122.095 276.107 120.813 276.29 119.421 276.399C117.151 276.545 116.602 276.435 114.844 275.597C111.108 273.776 109.351 270.716 109.351 266.09C109.351 260.881 111.914 257.13 116.455 255.673C117.847 255.199 121.252 255.49 122.717 256.219Z" fill="#912C21"/>
<path d="M73.3521 265.835C69.873 275.379 67.0166 283.356 67.0166 283.502C67.0166 283.648 68.9575 283.757 71.3379 283.757H75.6592L76.6846 280.661L77.6733 277.564L84.1553 277.637L90.6006 277.747L91.5527 280.733L92.4683 283.757H96.9727C99.4263 283.757 101.44 283.684 101.44 283.611C101.44 283.465 89.5386 250.937 88.9526 249.407L88.5498 248.424H84.082H79.6509L73.3521 265.835ZM87.8906 270.352C87.8906 270.534 86.1328 270.644 84.0088 270.644C81.0425 270.644 80.1636 270.534 80.2734 270.17C80.3833 269.951 81.2622 267.22 82.251 264.16L84.0454 258.587L85.9497 264.342C87.0117 267.511 87.8906 270.206 87.8906 270.352Z" fill="#912C21"/>
<path d="M141.431 261.464L141.541 274.468L142.749 276.945C144.177 279.823 146.375 281.753 149.67 283.101C152.6 284.267 159.595 284.303 162.451 283.174C165.051 282.118 167.578 280.296 168.86 278.548C170.874 275.78 171.021 274.65 171.021 260.918V248.424H167.029H163L162.891 260.335C162.781 271.518 162.744 272.356 162.048 273.521C160.73 275.743 159.595 276.29 156.372 276.29C153.259 276.29 152.271 275.852 150.732 273.776C150 272.829 149.963 272.246 149.854 260.59L149.744 248.424H145.532H141.284L141.431 261.464Z" fill="#912C21"/>
<path d="M176.88 266.09V283.757H181.091H185.303V266.09V248.424H181.091H176.88V266.09Z" fill="#912C21"/>
<path d="M202.515 252.249V256.073H207.275H212.036V269.915V283.757H216.064H220.093V269.915V256.073H224.854H229.614V252.249V248.424H216.064H202.515V252.249Z" fill="#912C21"/>
<path d="M233.276 266.09V283.757H244.629H256.018L255.908 280.005L255.798 276.29H248.73H241.699V273.12V269.915L247.595 269.842L253.491 269.733L253.528 266.163L253.601 262.63H247.668H241.699V259.352V256.073H248.657H255.615V252.249V248.424H244.446H233.276V266.09Z" fill="#912C21"/>
<path d="M261.841 250.318C261.841 251.374 261.511 258.55 261.108 266.272C260.706 273.995 260.376 281.061 260.376 282.008V283.757H264.368H268.359L268.579 281.28C268.689 279.932 268.872 276.29 268.982 273.193C269.092 270.097 269.275 266.09 269.385 264.305L269.604 261.064L273.523 270.862L277.441 280.661H280.664H283.923L287.878 270.644C290.076 265.143 291.87 260.954 291.87 261.355C291.87 261.756 292.053 265.69 292.236 270.097C292.419 274.505 292.603 279.386 292.676 280.916L292.749 283.757H296.96H301.135L300.916 279.823C300.806 277.674 300.403 269.733 300.037 262.156L299.414 248.424H294.067H288.684L288.318 249.589C287.622 251.629 281.03 268.822 280.847 269.004C280.737 269.077 278.87 264.488 276.709 258.805L272.717 248.424H267.297H261.841V250.318Z" fill="#912C21"/>
<path d="M91.5161 302.334C90.271 305.649 88.9526 309.109 88.5864 310.056L87.8906 311.805H89.7217C91.5161 311.805 91.5161 311.805 91.9556 310.348L92.395 308.891H95.4346H98.4741L98.9136 310.348C99.353 311.768 99.3896 311.805 101.111 311.805H102.905L102.173 309.874C101.77 308.854 100.488 305.394 99.3164 302.188L97.1558 296.397L95.4712 296.36L93.7866 296.324L91.5161 302.334ZM97.1924 305.503C97.3755 306.086 97.1924 306.159 95.3979 306.159C94.1895 306.159 93.4204 306.013 93.5303 305.794C93.6035 305.576 94.043 304.228 94.519 302.771L95.3613 300.112L96.167 302.443C96.6064 303.755 97.0825 305.139 97.1924 305.503Z" fill="#912C21"/>
<path d="M113.159 304.046V311.805H117.737H122.314V310.42V309.073L119.385 309.182L116.455 309.328V302.807V296.324H114.807H113.159V304.046Z" fill="#912C21"/>
<path d="M133.008 302.407C133.118 309.328 133.337 309.838 136.267 311.368C139.197 312.897 143.225 311.841 144.91 309.073C145.459 308.126 145.569 307.179 145.569 302.152V296.324H144.031H142.456V301.715V307.142L141.357 308.235C140.369 309.182 140.039 309.328 138.904 309.146C136.56 308.745 136.45 308.417 136.23 302.043L136.047 296.324H134.473H132.898L133.008 302.407Z" fill="#912C21"/>
<path d="M160.437 297.089C156.922 298.837 155.383 302.516 156.519 306.414C158.13 311.914 165.161 313.99 169.446 310.238C171.057 308.818 172.083 306.669 172.119 304.702V303.245L168.933 303.317L165.711 303.354L165.601 304.665L165.491 305.977H167.139C168.713 305.977 168.787 306.013 168.494 306.778C167.761 308.781 164.392 309.838 162.268 308.745C158.936 307.033 158.716 301.715 161.865 299.529C163.037 298.728 165.527 298.764 167.029 299.638L168.274 300.367L169.116 299.383C169.556 298.837 169.922 298.291 169.922 298.145C169.922 298.036 169.043 297.526 168.018 297.052C165.381 295.814 162.964 295.85 160.437 297.089Z" fill="#912C21"/>
<path d="M182.373 301.788C182.373 306.778 182.446 307.434 183.215 308.891C184.314 311.076 185.962 311.987 188.782 311.987C191.345 311.95 192.92 311.258 194.165 309.546C194.934 308.417 195.007 307.943 195.117 302.334L195.227 296.287L193.652 296.36L192.078 296.397L191.895 302.152C191.711 307.616 191.675 307.907 190.833 308.563C189.88 309.364 188.562 309.437 187.39 308.818C185.815 308.016 185.706 307.47 185.669 301.788V296.324H184.021H182.373V301.788Z" fill="#912C21"/>
<path d="M206.543 304.046V311.805H211.304H216.064V310.53V309.255H212.952H209.839V307.434V305.612H212.402H214.966V304.155V302.698H212.402H209.839V300.877V299.056H212.952H216.064V297.671V296.324H211.304H206.543V304.046Z" fill="#912C21"/>
<path d="M227.6 296.433C227.527 296.506 227.454 300.003 227.417 304.192L227.38 311.805H232.178H236.938V310.53V309.291L233.936 309.182L230.896 309.073L230.713 302.698L230.53 296.324H229.138C228.369 296.324 227.673 296.397 227.6 296.433Z" fill="#912C21"/>
<path d="M262.573 304.046V311.805H267.334H272.095V310.53V309.255H268.982H265.869V307.434V305.612H268.433H270.996V304.155V302.698H268.433H265.869V300.877V299.056H269.019H272.131L272.021 297.744L271.912 296.433L267.224 296.36L262.573 296.324V304.046Z" fill="#912C21"/>
<path d="M236.279 321.275C235.144 321.785 234.558 322.332 234.155 323.315C233.02 325.974 234.082 327.832 237.488 329.289C239.758 330.273 240.601 331.001 240.601 332.021C240.601 333.988 237.598 334.425 235.803 332.713L234.741 331.693L233.753 332.604C233.167 333.077 232.654 333.514 232.581 333.551C232.214 333.769 233.972 335.263 235.291 335.882C239.429 337.776 244.19 335.117 243.787 331.183C243.567 329.143 242.578 328.123 239.649 326.885C237.232 325.865 236.499 324.954 237.305 324.007C237.927 323.279 239.502 323.315 240.564 324.08C241.406 324.663 241.48 324.627 242.285 323.643C243.274 322.405 243.164 322.15 241.187 321.239C239.282 320.365 238.257 320.401 236.279 321.275Z" fill="#912C21"/>
<path d="M115.723 321.166C115.723 321.312 116.931 324.736 118.396 328.743L121.106 336.028L122.571 336.137L124.072 336.246L124.878 334.134C127.112 328.233 129.639 321.348 129.639 321.13C129.639 321.02 128.906 320.911 128.027 320.911H126.416L125.317 323.898C124.731 325.574 123.926 327.868 123.56 328.998C123.193 330.163 122.827 331.11 122.681 331.11C122.571 331.11 121.729 328.852 120.813 326.084L119.165 321.093L117.444 320.984C116.492 320.911 115.723 321.02 115.723 321.166Z" fill="#912C21"/>
<path d="M140.259 328.56V336.21H145.02H149.78V334.935V333.66H146.667H143.555V331.839V330.018H146.045H148.499V328.743V327.468H146.045H143.555V325.464V323.461H146.594H149.597V322.186V320.911H144.946H140.259V328.56Z" fill="#912C21"/>
<path d="M161.133 328.561V336.21H162.781H164.429V331.074V325.938L166.553 328.998C171.79 336.647 171.387 336.21 173.145 336.21H174.683V328.561V320.911H173.035H171.387V325.683V330.491L168.018 325.719L164.612 320.911H162.891H161.133V328.561Z" fill="#912C21"/>
<path d="M186.401 328.56V336.21H190.173C194.531 336.21 196.179 335.627 198.01 333.551C200.464 330.782 200.537 326.557 198.23 323.497C196.729 321.53 194.897 320.911 190.356 320.911H186.401V328.56ZM194.934 324.845C195.886 325.792 196.069 326.302 196.179 328.087C196.289 329.763 196.179 330.455 195.557 331.402C194.714 332.786 192.883 333.66 190.979 333.66H189.697V328.524V323.388L191.748 323.534C193.396 323.679 193.982 323.898 194.934 324.845Z" fill="#912C21"/>
<path d="M213.647 323.534C213.098 324.991 211.78 328.451 210.718 331.183L208.813 336.21H210.571C212.256 336.21 212.366 336.173 212.769 334.935L213.208 333.66H216.248H219.287L219.727 334.935C220.129 336.173 220.239 336.21 221.924 336.21H223.682L221.191 329.544C219.836 325.901 218.518 322.477 218.298 321.895C217.969 321.02 217.712 320.911 216.284 320.911H214.673L213.647 323.534ZM217.383 328.269L218.225 330.746H216.248H214.307L215.259 327.796C215.808 326.193 216.321 325.1 216.394 325.355C216.467 325.61 216.907 326.921 217.383 328.269Z" fill="#912C21"/>
</svg>
