<svg width="158" height="166" viewBox="0 0 158 166" fill="none" xmlns="http://www.w3.org/2000/svg">
<path d="M60.133 13.7838C50.4066 21.3552 42.144 27.8589 41.7536 28.1824C41.3958 28.506 41.038 28.7972 40.9404 28.7972C40.8753 28.7972 40.8428 26.9529 40.8753 24.688C40.9729 20.1581 40.6476 18.3137 39.6717 17.796C39.3139 17.6019 35.9633 17.4725 31.4091 17.4725H23.7646L23.114 18.3137C22.4634 19.155 22.4309 19.5433 22.4309 31.1916L22.3983 43.1958L11.7936 51.4467C5.97073 55.9766 0.928599 60.0535 0.6033 60.4742C-0.307537 61.6066 -0.177418 62.9656 0.928599 64.0981C2.29486 65.4247 3.72617 65.36 5.64544 63.9039C6.45868 63.2892 15.2092 56.4943 25.0983 48.7611C34.9874 41.0603 47.056 31.6769 51.8704 27.9236C56.7174 24.1703 64.6872 17.9578 69.5992 14.1074C74.5112 10.2893 78.7076 7.11842 78.8702 7.11842C79.0654 7.11842 87.4581 13.5574 97.5749 21.3876C118.199 37.404 142.304 56.0413 149.102 61.2507C151.575 63.1597 153.982 64.8099 154.405 64.907C156.356 65.3923 158.341 63.3862 157.95 61.2831C157.755 60.3447 156.682 59.4064 148.549 53.1292C143.507 49.2141 134.561 42.2898 128.641 37.6952C107.529 21.3229 84.7907 3.68864 82.3835 1.84433C80.5618 0.453003 79.6835 7.62939e-06 78.8702 7.62939e-06C77.9594 7.62939e-06 75.292 1.94139 60.133 13.7838ZM34.7922 28.4089V33.5213L33.9139 34.2007C33.3934 34.5567 31.9296 35.6891 30.6609 36.6922L28.2862 38.5365V30.9327V23.2966H31.5392H34.7922V28.4089Z" fill="#912C21"/>
<path d="M73.6331 37.857C65.2079 38.7306 57.1079 41.7074 49.5935 46.6256C44.9092 49.6994 38.1105 56.3972 35.1828 60.7977C31.5069 66.363 29.0672 72.1548 27.5708 78.8525C26.5949 83.1883 26.5298 94.6101 27.4081 99.3342C28.9045 107.261 33.1009 116.418 37.8502 122.145C38.5659 123.019 44.649 129.814 51.3501 137.191C65.4031 152.658 68.0054 155.537 73.2753 161.394C77.3741 165.956 78.35 166.571 80.074 165.6C80.5295 165.374 87.9463 157.382 96.5992 147.869C105.252 138.356 113.873 128.908 115.727 126.869C121.354 120.722 124.217 116.451 126.852 110.4C129.78 103.638 130.886 97.9105 130.886 89.4655C130.886 82.3147 130.398 78.8849 128.479 73.1255C120.932 50.12 97.8679 35.3332 73.6331 37.857ZM79.3909 68.9191L83.2294 79.7585L83.262 74.5815V69.4045H98.7137H114.165V75.2933V81.2146H109.286H104.406V101.114V121.013H98.2257H92.0451V116.71V112.439H86.6126H81.1475L79.5536 107.812L77.9921 103.217L68.3633 103.282L58.767 103.379L57.2381 107.909L55.7091 112.439H48.9104C44.714 112.439 42.1442 112.309 42.1767 112.115C42.2092 111.921 46.6008 99.6577 51.9357 84.8385L61.5971 57.9179L68.591 57.9827L75.5849 58.0797L79.3909 68.9191Z" fill="#912C21"/>
<path d="M65.7283 82.9618C64.2319 87.427 62.9307 91.2774 62.8331 91.4716C62.7356 91.7951 63.9717 91.8922 68.4283 91.8922C72.7873 91.8922 74.1536 91.7951 74.1536 91.4716C74.1536 90.9862 68.9162 75.2934 68.656 75.0345C68.5584 74.9051 67.2247 78.4966 65.7283 82.9618Z" fill="#912C21"/>
<path d="M83.9124 81.2793C83.9124 81.3764 91.4918 103.023 91.8171 103.864C91.9147 104.123 92.0123 99.14 92.0123 92.7658L92.0448 81.2146H87.9786C85.734 81.2146 83.9124 81.2469 83.9124 81.2793Z" fill="#912C21"/>
</svg>
